PathFileType	4	(X/Y/Z)	5_coords_data.trc
DataRate	CameraRate	NumFrames	NumMarkers	Units	OrigDataRate	OrigDataStartFrame	OrigNumFrames
30.0	30.0	8	21	m	30.0	51	70
Frame#	Time	THUMB_TIP	THUMB_IP	THUMB_MCP	THUMB_CMC	INDEX_TIP	INDEX_DIP	INDEX_PIP	INDEX_MCP	MIDDLE_TIP	MIDDLE_DIP	MIDDLE_PIP	MIDDLE_MCP	RING_TIP	RING_DIP	RING_PIP	RING_MCP	PINKY_TIP	PINKY_DIP	PINKY_PIP	PINKY_MCP	WRIST
X1	Y1	Z1	X2	Y2	Z2	X3	Y3	Z3	X4	Y4	Z4	X5	Y5	Z5	X6	Y6	Z6	X7	Y7	Z7	X8	Y8	Z8	X9	Y9	Z9	X10	Y10	Z10	X11	Y11	Z11	X12	Y12	Z12	X13	Y13	Z13	X14	Y14	Z14	X15	Y15	Z15	X16	Y16	Z16	X17	Y17	Z17	X18	Y18	Z18	X19	Y19	Z19	X20	Y20	Z20	X21	Y21	Z21
49	1.6666666666666594	0.48970229357263073	0.009534223576012524	-0.16475535435353916	0.4831932278845278	0.002701937805436261	-0.1438041745534147	0.46336798077465513	0.0008723233389384966	-0.11987862152038187	0.46656481444812414	-0.01888722595709652	-0.08001346798898634	0.581578386286917	0.027413672969515024	-0.1513861397177091	0.5660432412631045	0.028143816853114012	-0.14210572167764457	0.544724488236605	0.028735800921825705	-0.12879519361683836	0.5085935992834982	0.020639358764884652	-0.1077561208744956	0.6040786116838095	0.022219318650332665	-0.132014931589096	0.5872913391014798	0.021804484784955003	-0.12523146697942233	0.5611365535154138	0.021701099635044463	-0.11237354908974458	0.5219161973275417	0.015799410982573148	-0.09180460034301127	0.6087781409192549	0.015364593003480032	-0.10851517760546886	0.5924542713092453	0.014034567994819891	-0.10098110072560179	0.5698394660352329	0.013620103557639984	-0.09056098649163963	0.5318557165071507	0.006054351873295172	-0.07895430706818887	0.6056400837475892	0.006942503466251859	-0.07069916184149469	0.5889424270049806	0.003741110018179561	-0.0687143849531123	0.5683182740780972	0.00024140119113641445	-0.06692319172667127	0.5333357458399853	-0.00849517386760923	-0.06604090758161649	0.4622830810018608	-0.023011742144276925	-0.051989820119430985
50	1.6999999999999926	0.48742008148730487	0.01091242764825201	-0.16512053114819503	0.48224545222053083	0.0032740362107900878	-0.14407585989394278	0.4630174898399816	0.0012024637131933247	-0.1196870499582491	0.4665024084235285	-0.018918970459101014	-0.08002758413587474	0.5827873919583255	0.030053989651165902	-0.1500649812236661	0.5669407207804875	0.029691311250918617	-0.14130418919557458	0.5452668314424614	0.028920187315388035	-0.12858972020001475	0.5090655476960373	0.01952206359176939	-0.1082236106160404	0.6056787670222441	0.02639879942847112	-0.12892690512675747	0.5886452178368917	0.024428773854501484	-0.1230979085245893	0.5619535775358625	0.02204911073875271	-0.1116391524186231	0.522345266131687	0.01451065436649196	-0.09239074302373043	0.6097737638056216	0.01867756872006443	-0.10579255157183567	0.5931961626872702	0.015925543578863943	-0.09926495639573635	0.5701754175253436	0.013522495517315936	-0.09007525394116639	0.53211558275418	0.004880065724728155	-0.07951692933581725	0.6056846838760384	0.006621650404068258	-0.07022538222315172	0.588993733056811	0.0032181282214647777	-0.06854365766108572	0.5683791004475517	-0.00046196857636449096	-0.06702516204243267	0.5334086424072754	-0.00927199685399388	-0.06644730635054152	0.4622830810018609	-0.023011742144276925	-0.051989820119430985
51	1.7333333333333258	0.48578096834907347	0.011902648425173523	-0.16531292666275252	0.4815570527925851	0.003648425308432124	-0.14428850424236947	0.46278822015615306	0.0013970603490338074	-0.11956033655276502	0.4664691933017179	-0.018958516546100257	-0.08003830565899747	0.583529995320691	0.03237870577085844	-0.14883811157583282	0.5674888734107463	0.0311212483893199	-0.14052539789112622	0.5455834016063413	0.029250605052935585	-0.12833274307215997	0.5093512688662665	0.0187200325124236	-0.1085849408381236	0.6065832257459579	0.02913661294600406	-0.1263898930895237	0.5894270897831075	0.02610733538937665	-0.12144110775278642	0.562442281287639	0.022300837887128777	-0.11110959105734092	0.522607585343902	0.013574282474479504	-0.09285603932897901	0.6102085535839356	0.020893559446406473	-0.10383959949433783	0.5935447369443879	0.017115832399304975	-0.09809103503343669	0.5703501853828702	0.013358703230992697	-0.08984017221354221	0.5322642909489725	0.004046874281491197	-0.07996721314418312	0.6056454584342706	0.006585884750925808	-0.06997533464803987	0.58897117259055	0.003011449264374466	-0.06849492843541552	0.5683731245753655	-0.0008293980883011809	-0.06716063889502327	0.5334379359287684	-0.009788869688902524	-0.06678127908599796	0.4622830810018609	-0.023011742144276925	-0.051989820119430985
52	1.7666666666666588	0.4847145291883107	0.012565479775532573	-0.16538587312611808	0.48107223080108164	0.003860756676448085	-0.14443446605578852	0.4626126052252888	0.001474064913213946	-0.11948720315925326	0.4664604154175054	-0.019008594966864967	-0.0800468050760483	0.5838824763541544	0.03430120751138771	-0.14785290417163718	0.5677363332242382	0.03235676455690317	-0.1398828851236661	0.5457022056811314	0.029668501961325422	-0.12808117759334162	0.509471328114523	0.018237027309947473	-0.10883849087738798	0.6070197749467802	0.03028385517044241	-0.1249590239901884	0.5898016158711148	0.026743674592974498	-0.12059988192735073	0.5626745361949347	0.022350989801167176	-0.11089238901918955	0.5227362442434933	0.012977575351272141	-0.0931943705269419	0.6103263549432372	0.021975577542839242	-0.10290771193711251	0.5936537206316368	0.017593191109071205	-0.09763343907189487	0.5704005554501432	0.01319557156087775	-0.0898790061234761	0.5323271591391613	0.0035199346638962736	-0.08031243003875913	0.6055582146991133	0.006755522301342465	-0.06988289317531915	0.5889031418867572	0.0030449071063244904	-0.06852646975705429	0.5683273168588824	-0.0009495606685612779	-0.06730513007552494	0.5334381653400115	-0.0100908255903282	-0.06704468253117599	0.4622830810018609	-0.023011742144276925	-0.051989820119430985
53	1.7999999999999918	0.4842032852929331	0.012770527980673518	-0.16544994880490604	0.4807715084024362	0.003846171275599941	-0.1445554814804093	0.4624955260879797	0.001423236187771626	-0.11947684802477922	0.46645330797536144	-0.019079810552410037	-0.08005793077808357	0.5839242733906579	0.035700097604665026	-0.1472716423371086	0.5677375533288223	0.033285993299864536	-0.13951521312997273	0.5456533064676802	0.030048210075269144	-0.12794747206411783	0.5094506649150337	0.017951679142060972	-0.1090615307851523	0.6071400615628232	0.030409432953799387	-0.12464628669567608	0.5899045797739472	0.0266764209749748	-0.12052284285935733	0.5627345454925766	0.022094044952254532	-0.11102544231312628	0.5227525026852082	0.012619480624811608	-0.09348073357359707	0.6102858910638135	0.022175609810345165	-0.10294628150522037	0.593627173513875	0.017514007720867086	-0.09787118588535795	0.5703654853294349	0.012931026636778087	-0.09025081016018766	0.5323212621738399	0.0032142974202609143	-0.080610110402381	0.6054433027386484	0.006994721503859602	-0.07003825506727746	0.5888086927231945	0.0031761285550302443	-0.06873131301618815	0.5682548626698134	-0.0009409156939240715	-0.06754723709426316	0.5334157701073371	-0.01027157003216772	-0.06730234927621936	0.4622830810018608	-0.023011742144276925	-0.051989820119430985
54	1.8333333333333253	0.4840624851463329	0.012663138934178475	-0.16551986593801277	0.4806902572699908	0.003649708994414691	-0.14465395690267496	0.4624717790504004	0.0012583124358813702	-0.11953049627595908	0.46645282760094176	-0.019157782117300126	-0.08006881441071428	0.5838325720674289	0.03648803587115512	-0.14702631449926	0.5676285279518534	0.03381089078434785	-0.13939336955745257	0.5455282311407211	0.03027987428754847	-0.12794266493462736	0.509358672476379	0.0178454388959578	-0.10921343813480781	0.6071019258424648	0.030157217484213517	-0.12486260810375166	0.589858508093771	0.026411832926244216	-0.12078380449767365	0.5626805221379632	0.02184909864248641	-0.1112997080598607	0.5227087715330205	0.0124438262970204	-0.09369437004311473	0.6101888018941005	0.022048525236950833	-0.10336599704737956	0.5935436904115043	0.01731952706069878	-0.0983086420093236	0.5702943523285336	0.012723737256177425	-0.09065834961122565	0.5322766118604015	0.003084408501275948	-0.08083716919069145	0.6053532710981844	0.007163750232681898	-0.07031118028304914	0.5887327491227357	0.0032857443754536475	-0.06899995191433286	0.5681921746739589	-0.0008905377332065201	-0.06779351581443135	0.5333855575463935	-0.010340179468119715	-0.06749834431028834	0.4622830810018609	-0.023011742144276925	-0.051989820119430985
55	1.8666666666666587	0.48420723838578816	0.012373194431828383	-0.16557135069403878	0.48075889462137544	0.0033956563104011184	-0.1447024088291345	0.462489210884497	0.0010670134382275154	-0.11961025709740135	0.4664320058376742	-0.01922565746968624	-0.08008113017331772	0.5836795049820788	0.03688336689430294	-0.14699890681286357	0.5674681940721268	0.03407306161871465	-0.1394295222382185	0.5453697194224485	0.0304104106216328	-0.1280167119431553	0.5092296978478275	0.017884894419197828	-0.10929115778717732	0.6069799357200242	0.029746393758973866	-0.1252831397421906	0.5897303917740105	0.026069797915501403	-0.12116781756059863	0.5625595857264574	0.021641735007645713	-0.11159968777414989	0.5226143293936847	0.012460176490234454	-0.0938170164140747	0.6100817162025888	0.021791755569253946	-0.1038792418240587	0.5934457075332149	0.017101389988167903	-0.09875638263525804	0.5702101692174251	0.012603946872436989	-0.09100636691938818	0.5322116970126651	0.0031146158965752457	-0.08096696744857101	0.6052844475850475	0.00732116873805394	-0.07058898630915109	0.5886739086407462	0.0034173169456754304	-0.06922886235781817	0.5681409557259839	-0.0007827887914630405	-0.06797627487703639	0.5333556158136825	-0.010307942740572174	-0.06760882361302281	0.4622830810018608	-0.023011742144276925	-0.051989820119430985
56	1.8999999999999915	0.48456283094635333	0.011997365270494886	-0.1655916618883962	0.4809774181893379	0.003113350731521969	-0.14470580301131988	0.4625811211650819	0.0008885614294005806	-0.11969687323900625	0.4664262309192886	-0.01926558419934815	-0.0800873346787895	0.5835591165780416	0.037135016001339505	-0.14700538590450898	0.5673468515062955	0.03426015405895172	-0.13946233413114478	0.545258543112605	0.03054137074668606	-0.12804799595577793	0.5091475032825717	0.017978003616615945	-0.10929191153634692	0.6068858704465538	0.02930507670135024	-0.12566184290968457	0.589630288127002	0.02573859905372683	-0.12147554191690171	0.5624713751274971	0.021485736733260763	-0.11179483136609546	0.522552792733603	0.012554152282403863	-0.09382592767502101	0.6100288445543309	0.021490233445163043	-0.10424899551774855	0.5933918800411484	0.016893848503089337	-0.09904470332270565	0.5701659900571966	0.012526935388546045	-0.09119180046431027	0.5321711883109209	0.0032110948915917703	-0.08097754620388956	0.6052662540792895	0.007365138667497495	-0.0707786807716552	0.588655161786471	0.0034827892402864435	-0.06936482937758989	0.5681243658580507	-0.0007119134867947796	-0.06805987475118186	0.5333425504690145	-0.010246790386656268	-0.0676184092967137	0.4622830810018608	-0.023011742144276925	-0.051989820119430985
